<?xml version="1.0" encoding="utf-8"?>
<?xml-stylesheet type="text/xsl" href="rss1.xsl"?>
<rss version="2.0" xmlns:atom="http://www.w3.org/2005/Atom" xmlns:content="http://purl.org/rss/1.0/modules/content/" xmlns:dc="http://purl.org/dc/elements/1.1/" xmlns:media="http://search.yahoo.com/mrss/">
<channel>
 <title>Getty</title>
 <link>http://www.gettyimg.com/</link>
 <atom:link href="http://www.gettyimg.com/" rel="self" type="application/rss+xml" />

 
                <item>
                <title><![CDATA[【HD Live Performances】WEB-DL - Sam Smith Live at the iHeart Festival 2014 1080p AMZN WEB-DL DDP2.0 H.264-SiGLA]]></title>
                <link><![CDATA[https://sharemania.us/threads/sam-smith-live-at-the-iheart-festival-2014-1080p-amzn-web-dl-ddp2-0-h-264-sigla.243363/]]></link>
                <description><![CDATA[<article>
<blockquote class="messageText SelectQuoteContainer ugc baseHtml">
<div style="text-align: center"><img src="https://i.ibb.co/myRSCwM/Sam-Smith-Live-at-the-i-Heart-Festival-2014-1080p-AMZN-WEB-DL-DDP2-0-H-264-Si-GLA.jpg" class="bbCodeImage LbImage" alt="[​IMG]" data-url="https://i.ibb.co/myRSCwM/Sam-Smith-Live-at-the-i-Heart-Festival-2014-1080p-AMZN-WEB-DL-DDP2-0-H-264-Si-GLA.jpg" style=""><br>
<br>
<img src="https://i.ibb.co/b5KjGMF/Sam-Smith-Live-at-the-i-Heart-Festival-2014-2014-1080p-AMZN-WEB-DL-DDP2-0-H-264-Si-GLA-mkv-thumbs.jpg" class="bbCodeImage LbImage" alt="[​IMG]" data-url="https://i.ibb.co/b5KjGMF/Sam-Smith-Live-at-the-i-Heart-Festival-2014-2014-1080p-AMZN-WEB-DL-DDP2-0-H-264-Si-GLA-mkv-thumbs.jpg" style=""><br>
<br>
<span data-s9e-mediaembed="youtube" style="display:inline-block;width:100%;max-width:640px"><span style="display:block;overflow:hidden;position:relative;padding-bottom:56.25%"><iframe allowfullscreen="" loading="lazy" scrolling="no" style="background:url(https://i.ytimg.com/vi/7NMhjmLGRak/hqdefault.jpg) 50% 50% / cover;border:0;height:100%;left:0;position:absolute;width:100%" src="https://www.youtube.com/embed/7NMhjmLGRak"></iframe></span></span>​</div><br>
<div style="text-align: left">
<div class="bbCodeBlock bbCodeCode">
<div class="type">Code:</div>
<pre>General
Unique ID                                : 51861146891942766861155390273721000209 (0x270417F48713C3E6F71875B7F6C4E111)
Complete name                            : Sam.Smith.Live.at.the.iHeart.Festival.2014.2014.1080p.AMZN.WEB-DL.DDP2.0.H.264-SiGLA.mkv
Format                                   : Matroska
Format version                           : Version 4
File size                                : 3.66 GiB
Duration                                 : 52 min 16 s
Overall bit rate mode                    : Constant
Overall bit rate                         : 10.0 Mb/s
Movie name                               : Sam.Smith.-.Live.at.the.iHeart.Festival.2014.2014.1080p.AMZN.WEB-DL.DDP2.0.H.264-SiGLA
Writing application                      : mkvmerge v62.0.0 ('SiGLA') 64-bit
Writing library                          : libebml v1.4.2 + libmatroska v1.6.4

Video
ID                                       : 1
Format                                   : AVC
Format/Info                              : Advanced Video Codec
Format profile                           : High@L4
Format settings                          : CABAC / 4 Ref Frames
Format settings, CABAC                   : Yes
Format settings, Reference frames        : 4 frames
Codec ID                                 : V_MPEG4/ISO/AVC
Duration                                 : 52 min 16 s
Bit rate mode                            : Constant
Bit rate                                 : 10 000 kb/s
Width                                    : 1 920 pixels
Height                                   : 1 080 pixels
Display aspect ratio                     : 16:9
Frame rate mode                          : Constant
Frame rate                               : 25.000 FPS
Color space                              : YUV
Chroma subsampling                       : 4:2:0
Bit depth                                : 8 bits
Scan type                                : Progressive
Bits/(Pixel*Frame)                       : 0.193
Stream size                              : 3.58 GiB (98%)
Default                                  : Yes
Forced                                   : No
Color range                              : Limited
Color primaries                          : BT.709
Transfer characteristics                 : BT.709
Matrix coefficients                      : BT.709

Audio
ID                                       : 2
Format                                   : E-AC-3
Format/Info                              : Enhanced AC-3
Commercial name                          : Dolby Digital Plus
Codec ID                                 : A_EAC3
Duration                                 : 52 min 16 s
Bit rate mode                            : Constant
Bit rate                                 : 224 kb/s
Channel(s)                               : 2 channels
Channel layout                           : L R
Sampling rate                            : 48.0 kHz
Frame rate                               : 31.250 FPS (1536 SPF)
Compression mode                         : Lossy
Stream size                              : 83.7 MiB (2%)
Title                                    : English
Language                                 : English
Service kind                             : Complete Main
Default                                  : Yes
Forced                                   : No
</pre>
</div></div><br>
<div class="bbCodeBlock bbCodeVfcHH HiddenContent">
<div class="attribution type">Hidden Content:</div>
<blockquote>You must either reply or click 'Like' to see the hidden information contained here.</blockquote>
</div>
<div class="messageTextEndMarker">&nbsp;</div>
</blockquote>
</article>]]></description>
                <author><![CDATA[-C.A.A]]></author>
                </item>

                </channel></rss>